<svg width="25" height="25" viewBox="0 0 25 25" fill="none" xmlns="http://www.w3.org/2000/svg">
<path d="M22.9802 2.02804C22.9788 2.02662 22.9775 2.02516 22.9761 2.02384C22.9747 2.02237 22.9732 2.0211 22.9717 2.01964C20.5991 -0.348921 16.9242 -0.631392 14.2408 1.15763C13.5415 1.61798 13.3212 1.88648 11.481 3.72672C11.1778 4.0299 10.8802 4.38639 10.6191 4.77658C10.6175 4.77892 10.6163 4.78141 10.6147 4.78381C9.58982 6.32121 9.24489 8.18088 9.58088 9.93518L8.63361 14.805L7.84865 15.5899L7.57697 15.3183C7.14577 14.8871 6.44669 14.8871 6.01554 15.3183L0.602785 20.731C-0.200928 21.5347 -0.200928 22.8425 0.602785 23.6462L1.35381 24.3973C2.15738 25.2009 3.46534 25.2011 4.26905 24.3973L9.68181 18.9845C10.113 18.5533 10.113 17.8542 9.68181 17.4231L9.41013 17.1514L10.1951 16.3664L15.0649 15.4192C16.8532 15.7617 18.7049 15.3927 20.2155 14.3859C20.2181 14.3842 20.2208 14.3828 20.2234 14.381C20.6113 14.1214 20.9668 13.8255 21.2732 13.5191C23.1235 11.6688 23.384 11.456 23.8424 10.7592C25.6333 8.07283 25.3464 4.39826 22.9802 2.02804ZM2.81138 22.732L2.26802 22.1886L6.79626 17.6603L7.33962 18.2037L2.81138 22.732ZM20.7701 3.04782C21.2402 3.37477 21.6274 3.76271 21.9522 4.22995L20.256 5.92619L19.0738 4.74406L20.7701 3.04782ZM18.4714 2.2235L17.5123 3.18263L16.7314 2.40187C17.2784 2.23961 17.8603 2.17301 18.4714 2.2235ZM13.0425 5.28815L14.7452 3.58532C14.7531 3.57746 14.7614 3.57023 14.7693 3.56242L15.9509 4.74396L14.2011 6.49377L13.0196 5.31222C13.0274 5.30436 13.0346 5.29601 13.0425 5.28815ZM11.8589 7.27449L12.6397 8.05525L11.6805 9.01438C11.6324 8.43074 11.6912 7.83992 11.8589 7.27449ZM11.0495 13.9505L11.1932 13.2114C11.3934 13.4372 11.5486 13.5941 11.7886 13.8068L11.0495 13.9505ZM13.687 12.4952C13.2238 12.173 12.834 11.7863 12.5049 11.3129L14.2012 9.61668L15.3833 10.7988L13.687 12.4952ZM17.5123 6.30549L18.6945 7.48762L16.9447 9.23738L15.7626 8.05525L17.5123 6.30549ZM15.9856 13.3195L16.9448 12.3603L17.7256 13.1412C17.1601 13.3088 16.5693 13.3676 15.9856 13.3195ZM21.4147 10.2548L19.7119 11.9576C19.7041 11.9655 19.6958 11.9726 19.6878 11.9805L18.5063 10.799L20.2561 9.0492L21.4376 10.2307C21.4298 10.2386 21.4226 10.2469 21.4147 10.2548ZM22.5982 8.26843L21.8174 7.48767L22.7766 6.52854C22.8248 7.11208 22.766 7.70295 22.5982 8.26843Z" fill="white"/>
</svg>
